<svg xmlns="http://www.w3.org/2000/svg" version="1.1" xmlns:xlink="http://www.w3.org/1999/xlink" xmlns:svgjs="http://svgjs.dev/svgjs" width="100%" height="100%" viewBox="0 0 1000 600"><rect width="1000" height="600" x="0" y="0" fill="#04bbee"/><g><rect width="333.3333333333333" height="333.3333333333333" y="142.816597999384" fill="#2989c6" transform="matrix(1.0365325422124672,0,0,1.0365325422124674,0,-20.789481547251185)" x="120.5943832397461"/><path d="M227.83868832809384 384.48326729566514L227.83868832809384 384.48326729566514Q215.32308843345538 384.48326729566514 206.65844235255184 375.81862121476155L206.65844235255184 375.81862121476155Q205.90964577765894 375.0430819050511 205.027135528678 373.97337251234694Q204.1713680145147 372.9304058544604 204.1713680145147 371.7804682573034L204.1713680145147 371.7804682573034Q204.1713680145147 370.22938963788243 205.21433467240126 370.22938963788243Q206.28404406510538 370.22938963788243 206.65844235255184 369.854991350436L206.65844235255184 369.854991350436Q207.83512268452637 368.89225289700227 207.83512268452637 367.6353443605749Q207.83512268452637 366.3784358241475 208.02232182824963 365.04129908326735L208.02232182824963 365.04129908326735Q208.39672011569604 362.5274820104126 210.61636710555717 359.45206750638823Q212.83601409541825 356.3766530023638 215.7242294557194 356.3766530023638L215.7242294557194 356.3766530023638Q215.7242294557194 356.3766530023638 215.91142859944267 356.4568812068166Q216.09862774316588 356.5638521460871 216.09862774316588 356.7510512898102L216.09862774316588 356.7510512898102Q216.09862774316588 357.5265905995208 214.7614910022857 358.86372734040094Q213.39761152658792 360.2276068160987 211.95350384643734 362.0461127836958Q210.50939616628676 363.86461875129277 210.50939616628676 366.3784358241475L210.50939616628676 366.3784358241475Q210.50939616628676 369.854991350436 213.31738332213513 372.1548665447499Q216.09862774316588 374.45474173906376 220.2437516398944 375.81862121476155Q224.388875536623 377.1557579556417 228.53399943335154 377.74409812162907Q232.65238059526246 378.3056955527987 235.1661976681172 378.3056955527987L235.1661976681172 378.3056955527987Q247.09345739676837 378.3056955527987 256.4534145829296 372.4490366277435Q265.7866290342733 366.5656349678707 272.9001964957558 357.23242051652716Q280.04050669205594 347.8992060651835 285.22859724667103 337.20211213814207Q290.4166878012861 326.5317609459183 294.08044247129783 317.0915755553042L294.08044247129783 317.0915755553042Q283.49031948352683 317.0915755553042 272.9001964957558 315.8346670188768Q262.3100735079848 314.5777584824495 251.53275137649058 314.5777584824495L251.53275137649058 314.5777584824495Q250.75721206678008 314.5777584824495 249.5003035303527 314.8719285654431Q248.27013772874295 315.16609864843673 248.27013772874295 316.5032353893169L248.27013772874295 316.5032353893169Q248.27013772874295 318.24151315246115 248.93870609918304 320.0600191200582Q249.60727446962312 321.9052678224728 249.60727446962312 323.8307447293403L249.60727446962312 323.8307447293403Q249.60727446962312 326.31781906737746 249.23287618217665 329.0188352839554Q248.83173515991263 331.71985150053337 247.09345739676837 334.01972669484724L247.09345739676837 334.01972669484724Q245.1679804899009 336.533543767702 243.83084374902074 337.79045230412936Q242.49370700814057 339.04736084055673 240.75542924499635 342.30997448830436L240.75542924499635 342.30997448830436Q240.1670890790091 343.64711122918453 239.20435062557533 344.9040197656119Q238.24161217214163 346.1609283020393 236.50333440899738 346.1609283020393L236.50333440899738 346.1609283020393L235.9417369778277 346.1609283020393Q237.09167457498467 345.0109907048823 238.64275319440566 341.8286052615875Q240.1670890790091 338.64621981829265 240.1670890790091 337.1218839336893L240.1670890790091 337.1218839336893Q240.1670890790091 334.4208677171113 238.8299523381289 329.9815737373891Q237.46607286243113 325.5690224924845 237.46607286243113 323.42960370707624L237.46607286243113 323.42960370707624Q237.46607286243113 321.5041268002088 240.4612591620027 318.6159114399076Q243.4564454615743 315.72769607960646 247.57482662348525 312.83948071930524Q251.71995052021379 309.9512653590041 255.5709043339487 308.0257884521366Q259.4218581476836 306.10031154526916 261.3473350545511 306.10031154526916L261.3473350545511 306.10031154526916Q264.04835127112904 306.10031154526916 266.749367487707 306.5014525675332Q269.45038370428495 306.87585085497966 272.1246571860453 307.2769918772437L272.1246571860453 307.2769918772437Q278.30222892891175 308.0257884521366 284.45305793696053 308.90829870111753Q290.63062967982694 309.7640662152808 296.5942595441525 310.1652072375449L296.5942595441525 310.1652072375449Q301.0068107890571 297.83680648662965 304.77753639833924 285.2142356527208Q308.52151927280374 272.61840755362954 312.55967223026187 260.2900068027143L312.55967223026187 260.2900068027143Q297.1558569753222 253.5508376286782 280.2277058357792 247.85463511252863Q263.27281196141854 242.1851753311967 246.3446608218755 242.1851753311967L246.3446608218755 242.1851753311967Q232.09078316409278 242.1851753311967 221.20649009332817 247.66743596880542Q210.3221970225635 253.14969660641415 204.1713680145147 263.6595913897323Q197.9937962716483 274.1427434382329 197.9937962716483 289.1721604057261L197.9937962716483 289.1721604057261Q197.9937962716483 291.47203560004 198.20773815018913 293.79865352917153Q198.39493729391234 296.09852872348546 199.17047660362283 298.2112047740761L199.17047660362283 298.2112047740761Q199.5448748910693 299.5750842497739 200.21344326150938 300.61805090766046Q200.88201163194947 301.6877603003646 201.0959535104903 303.02489704124474L201.0959535104903 303.02489704124474Q197.61939798420184 301.8749594440878 196.36248944777446 298.9867440837866Q195.1055809113471 296.09852872348546 194.2498133971838 293.5847116506307Q193.39404588302048 291.0976373125936 190.69302966644253 291.0976373125936L190.69302966644253 291.0976373125936Q190.29188864417847 291.0976373125936 188.66058182030466 291.8731766223041Q187.02927499643084 292.62197319719695 186.65487670898438 293.02311421946104L186.65487670898438 293.02311421946104Q189.7302912130088 274.91828274794346 199.91927317851574 261.81434268731766Q210.1349978788403 248.7371453615096 225.4318421945095 241.59683516520943Q240.75542924499635 234.48326770372688 258.86026071651395 234.48326770372688L258.86026071651395 234.48326770372688Q274.26407597145356 234.48326770372688 288.0098416677018 239.48415911461876Q301.7823500987676 244.4850505255106 315.66182946910385 250.84982141210025L315.66182946910385 250.84982141210025Q317.9617046634178 244.29785138178738 324.80784477672427 241.4096360214862Q331.6272421552132 238.521420661185 337.9920130418028 238.521420661185L337.9920130418028 238.521420661185Q338.3664113292493 238.521420661185 339.14195063895977 238.70861980490824Q339.91748994867027 238.92256168344906 339.91748994867027 239.67135825834197L339.91748994867027 239.67135825834197Q339.91748994867027 240.44689756805246 338.6605814122429 240.7410676510461Q337.4036728758155 241.03523773403975 337.02927458836905 241.03523773403975L337.02927458836905 241.03523773403975Q334.70265665923756 241.03523773403975 332.4027814649237 243.8164821550705Q330.10290627060976 246.62446931091887 328.25765756819516 250.07428210238976Q326.4391516005981 253.5508376286782 325.47641314716435 255.28911539182243L325.47641314716435 255.28911539182243Q331.6272421552132 257.96338887358274 339.329149782683 261.06554611242484Q347.0310574101528 264.1409606164492 354.92016418134585 266.14666572776946Q362.8360136873565 268.17911357390733 369.5751828613926 268.17911357390733L369.5751828613926 268.17911357390733Q372.0622571994297 268.17911357390733 375.43184178644776 267.59077340792004Q378.8014263734658 267.02917597675037 381.50244259004376 265.3978691528766Q384.2034588066217 263.7398195941852 384.2034588066217 260.4772059464375L384.2034588066217 260.4772059464375Q384.2034588066217 259.5144674930038 383.4279194969113 257.69596152540674Q382.6523801872007 255.8507128229921 382.2779818997543 255.0751735132816L382.2779818997543 255.0751735132816Q382.6523801872007 253.14969660641415 384.2034588066217 253.14969660641415L384.2034588066217 253.14969660641415Q386.31613485721243 253.14969660641415 387.0916741669229 255.28911539182243Q387.8672134766334 257.4017914424131 387.8672134766334 258.9261273270165L387.8672134766334 258.9261273270165Q387.8672134766334 259.1400692055573 386.9847032276525 260.85160423388396Q386.1289357134892 262.5898819970282 385.72779469122514 262.99102301929224L385.72779469122514 262.99102301929224Q381.8768408774902 269.5162503147875 375.61904093017097 272.80560669735274Q369.3612409828517 276.06822034510037 361.87327523392275 276.25541948882363L361.87327523392275 276.25541948882363L361.4721342116587 276.25541948882363Q355.88290263477955 276.25541948882363 348.4751650903034 274.2497143775033Q341.06742754582723 272.21726653136545 333.8468891450743 269.4360221103347Q326.6263507443213 266.62803495448634 321.4382601897062 264.3281597601724L321.4382601897062 264.3281597601724Q316.6245679225376 275.6938220576539 312.8538423132555 287.5408535818523Q309.109859438791 299.36114237123303 304.85776460279203 310.9140038124378L304.85776460279203 310.9140038124378Q308.70871841652695 311.1279456909786 312.479444025809 311.39537303915466Q316.2234269002735 311.6895431221483 319.88718157028524 311.6895431221483L319.88718157028524 311.6895431221483Q325.47641314716435 311.6895431221483 330.95867378477305 310.5396055249914Q336.4409344223818 309.3896679278344 340.10468909239347 304.9503739481122L340.10468909239347 304.9503739481122Q340.10468909239347 304.9503739481122 340.2116600316639 304.8701457436594Q340.29188823611673 304.763174804389 340.47908737983994 304.763174804389L340.47908737983994 304.763174804389L340.47908737983994 305.1375730918354Q340.47908737983994 309.20246878411115 337.3234446713627 311.6093149176955Q334.1410592280679 314.0161610512798 329.6215370438929 315.2463268528896Q325.0752721249003 316.5032353893169 320.5557499407253 316.9846046160338Q316.0362277565503 317.46597384275066 313.1480123962491 317.46597384275066L313.1480123962491 317.46597384275066Q310.6341953233944 317.46597384275066 308.04015004608686 317.38574563829786Q305.4461047687793 317.27877469902745 302.74508855220137 317.27877469902745L302.74508855220137 317.27877469902745Q297.1558569753222 332.49539081024386 287.929613463249 345.7865300145928L287.929613463249 345.7865300145928Q281.3776434329361 355.1999726703893 272.0444289815925 364.15878883428644Q262.71121453024887 373.1176049981836 251.42578043722017 378.78706477951556Q240.1670890790091 384.48326729566514 227.83868832809384 384.48326729566514Z " fill="#0000000" transform="matrix(1.0365325422124672,0,0,1.0365325422124674,0,-20.789481547251185)"/><path d="M578.4448589823907 384.48326729566514L578.4448589823907 384.48326729566514Q565.9292590877521 384.48326729566514 557.2646130068487 375.81862121476155L557.2646130068487 375.81862121476155Q556.5158164319557 375.0430819050511 555.6333061829748 373.97337251234694Q554.7775386688115 372.9304058544604 554.7775386688115 371.7804682573034L554.7775386688115 371.7804682573034Q554.7775386688115 370.22938963788243 555.820505326698 370.22938963788243Q556.8902147194021 370.22938963788243 557.2646130068487 369.854991350436L557.2646130068487 369.854991350436Q558.4412933388232 368.89225289700227 558.4412933388232 367.6353443605749Q558.4412933388232 366.3784358241475 558.6284924825463 365.04129908326735L558.6284924825463 365.04129908326735Q559.0028907699929 362.5274820104126 561.222537759854 359.45206750638823Q563.4421847497151 356.3766530023638 566.3304001100162 356.3766530023638L566.3304001100162 356.3766530023638Q566.3304001100162 356.3766530023638 566.5175992537395 356.4568812068166Q566.7047983974627 356.5638521460871 566.7047983974627 356.7510512898102L566.7047983974627 356.7510512898102Q566.7047983974627 357.5265905995208 565.3676616565825 358.86372734040094Q564.0037821808847 360.2276068160987 562.5596745007342 362.0461127836958Q561.1155668205836 363.86461875129277 561.1155668205836 366.3784358241475L561.1155668205836 366.3784358241475Q561.1155668205836 369.854991350436 563.923553976432 372.1548665447499Q566.7047983974627 374.45474173906376 570.8499222941912 375.81862121476155Q574.9950461909198 377.1557579556417 579.1401700876484 377.74409812162907Q583.2585512495593 378.3056955527987 585.772368322414 378.3056955527987L585.772368322414 378.3056955527987Q597.6996280510652 378.3056955527987 607.0595852372264 372.4490366277435Q616.39279968857 366.5656349678707 623.5063671500526 357.23242051652716Q630.6466773463528 347.8992060651835 635.8347679009679 337.20211213814207Q641.0228584555829 326.5317609459183 644.6866131255946 317.0915755553042L644.6866131255946 317.0915755553042Q634.0964901378237 317.0915755553042 623.5063671500526 315.8346670188768Q612.9162441622816 314.5777584824495 602.1389220307874 314.5777584824495L602.1389220307874 314.5777584824495Q601.363382721077 314.5777584824495 600.1064741846495 314.8719285654431Q598.8763083830397 315.16609864843673 598.8763083830397 316.5032353893169L598.8763083830397 316.5032353893169Q598.8763083830397 318.24151315246115 599.5448767534799 320.0600191200582Q600.2134451239199 321.9052678224728 600.2134451239199 323.8307447293403L600.2134451239199 323.8307447293403Q600.2134451239199 326.31781906737746 599.8390468364735 329.0188352839554Q599.4379058142094 331.71985150053337 597.6996280510652 334.01972669484724L597.6996280510652 334.01972669484724Q595.7741511441977 336.533543767702 594.4370144033176 337.79045230412936Q593.0998776624374 339.04736084055673 591.3615998992932 342.30997448830436L591.3615998992932 342.30997448830436Q590.7732597333058 343.64711122918453 589.8105212798721 344.9040197656119Q588.8477828264383 346.1609283020393 587.1095050632941 346.1609283020393L587.1095050632941 346.1609283020393L586.5479076321245 346.1609283020393Q587.6978452292815 345.0109907048823 589.2489238487025 341.8286052615875Q590.7732597333058 338.64621981829265 590.7732597333058 337.1218839336893L590.7732597333058 337.1218839336893Q590.7732597333058 334.4208677171113 589.4361229924257 329.9815737373891Q588.0722435167279 325.5690224924845 588.0722435167279 323.42960370707624L588.0722435167279 323.42960370707624Q588.0722435167279 321.5041268002088 591.0674298162995 318.6159114399076Q594.0626161158712 315.72769607960646 598.1809972777821 312.83948071930524Q602.3261211745106 309.9512653590041 606.1770749882455 308.0257884521366Q610.0280288019804 306.10031154526916 611.9535057088478 306.10031154526916L611.9535057088478 306.10031154526916Q614.6545219254258 306.10031154526916 617.3555381420038 306.5014525675332Q620.0565543585817 306.87585085497966 622.730827840342 307.2769918772437L622.730827840342 307.2769918772437Q628.9083995832085 308.0257884521366 635.0592285912572 308.90829870111753Q641.2368003341238 309.7640662152808 647.2004301984495 310.1652072375449L647.2004301984495 310.1652072375449Q651.612981443354 297.83680648662965 655.3837070526359 285.2142356527208Q659.1276899271005 272.61840755362954 663.1658428845586 260.2900068027143L663.1658428845586 260.2900068027143Q647.762027629619 253.5508376286782 630.8338764900759 247.85463511252863Q613.8789826157154 242.1851753311967 596.9508314761723 242.1851753311967L596.9508314761723 242.1851753311967Q582.6969538183896 242.1851753311967 571.8126607476249 247.66743596880542Q560.9283676768603 253.14969660641415 554.7775386688115 263.6595913897323Q548.5999669259451 274.1427434382329 548.5999669259451 289.1721604057261L548.5999669259451 289.1721604057261Q548.5999669259451 291.47203560004 548.8139088044859 293.79865352917153Q549.0011079482092 296.09852872348546 549.7766472579196 298.2112047740761L549.7766472579196 298.2112047740761Q550.1510455453661 299.5750842497739 550.8196139158063 300.61805090766046Q551.4881822862462 301.6877603003646 551.7021241647872 303.02489704124474L551.7021241647872 303.02489704124474Q548.2255686384987 301.8749594440878 546.9686601020712 298.9867440837866Q545.7117515656439 296.09852872348546 544.8559840514806 293.5847116506307Q544.0002165373173 291.0976373125936 541.2992003207394 291.0976373125936L541.2992003207394 291.0976373125936Q540.8980592984753 291.0976373125936 539.2667524746014 291.8731766223041Q537.6354456507277 292.62197319719695 537.2610473632812 293.02311421946104L537.2610473632812 293.02311421946104Q540.3364618673056 274.91828274794346 550.5254438328125 261.81434268731766Q560.7411685331372 248.7371453615096 576.0380128488064 241.59683516520943Q591.3615998992932 234.48326770372688 609.4664313708108 234.48326770372688L609.4664313708108 234.48326770372688Q624.8702466257504 234.48326770372688 638.6160123219987 239.48415911461876Q652.3885207530644 244.4850505255106 666.2680001234006 250.84982141210025L666.2680001234006 250.84982141210025Q668.5678753177145 244.29785138178738 675.4140154310211 241.4096360214862Q682.23341280951 238.521420661185 688.5981836960997 238.521420661185L688.5981836960997 238.521420661185Q688.9725819835461 238.521420661185 689.7481212932565 238.70861980490824Q690.5236606029672 238.92256168344906 690.5236606029672 239.67135825834197L690.5236606029672 239.67135825834197Q690.5236606029672 240.44689756805246 689.2667520665397 240.7410676510461Q688.0098435301123 241.03523773403975 687.6354452426659 241.03523773403975L687.6354452426659 241.03523773403975Q685.3088273135344 241.03523773403975 683.0089521192205 243.8164821550705Q680.7090769249065 246.62446931091887 678.8638282224919 250.07428210238976Q677.0453222548948 253.5508376286782 676.082583801461 255.28911539182243L676.082583801461 255.28911539182243Q682.23341280951 257.96338887358274 689.9353204369799 261.06554611242484Q697.6372280644497 264.1409606164492 705.5263348356426 266.14666572776946Q713.4421843416534 268.17911357390733 720.1813535156895 268.17911357390733L720.1813535156895 268.17911357390733Q722.6684278537265 268.17911357390733 726.0380124407446 267.59077340792004Q729.4075970277626 267.02917597675037 732.1086132443405 265.3978691528766Q734.8096294609185 263.7398195941852 734.8096294609185 260.4772059464375L734.8096294609185 260.4772059464375Q734.8096294609185 259.5144674930038 734.034090151208 257.69596152540674Q733.2585508414976 255.8507128229921 732.8841525540512 255.0751735132816L732.8841525540512 255.0751735132816Q733.2585508414976 253.14969660641415 734.8096294609185 253.14969660641415L734.8096294609185 253.14969660641415Q736.9223055115093 253.14969660641415 737.6978448212197 255.28911539182243Q738.4733841309302 257.4017914424131 738.4733841309302 258.9261273270165L738.4733841309302 258.9261273270165Q738.4733841309302 259.1400692055573 737.5908738819493 260.85160423388396Q736.735106367786 262.5898819970282 736.333965345522 262.99102301929224L736.333965345522 262.99102301929224Q732.4830115317869 269.5162503147875 726.2252115844677 272.80560669735274Q719.9674116371485 276.06822034510037 712.4794458882196 276.25541948882363L712.4794458882196 276.25541948882363L712.0783048659556 276.25541948882363Q706.4890732890764 276.25541948882363 699.0813357446003 274.2497143775033Q691.673598200124 272.21726653136545 684.4530597993711 269.4360221103347Q677.2325213986181 266.62803495448634 672.0444308440029 264.3281597601724L672.0444308440029 264.3281597601724Q667.2307385768344 275.6938220576539 663.4600129675522 287.5408535818523Q659.7160300930879 299.36114237123303 655.4639352570888 310.9140038124378L655.4639352570888 310.9140038124378Q659.3148890708238 311.1279456909786 663.0856146801058 311.39537303915466Q666.8295975545703 311.6895431221483 670.493352224582 311.6895431221483L670.493352224582 311.6895431221483Q676.082583801461 311.6895431221483 681.5648444390698 310.5396055249914Q687.0471050766786 309.3896679278344 690.7108597466903 304.9503739481122L690.7108597466903 304.9503739481122Q690.7108597466903 304.9503739481122 690.8178306859608 304.8701457436594Q690.8980588904136 304.763174804389 691.0852580341367 304.763174804389L691.0852580341367 304.763174804389L691.0852580341367 305.1375730918354Q691.0852580341367 309.20246878411115 687.9296153256595 311.6093149176955Q684.7472298823646 314.0161610512798 680.2277076981896 315.2463268528896Q675.681442779197 316.5032353893169 671.161920595022 316.9846046160338Q666.642398410847 317.46597384275066 663.754183050546 317.46597384275066L663.754183050546 317.46597384275066Q661.2403659776911 317.46597384275066 658.6463207003836 317.38574563829786Q656.0522754230761 317.27877469902745 653.3512592064982 317.27877469902745L653.3512592064982 317.27877469902745Q647.762027629619 332.49539081024386 638.5357841175459 345.7865300145928L638.5357841175459 345.7865300145928Q631.983814087233 355.1999726703893 622.6505996358892 364.15878883428644Q613.3173851845456 373.1176049981836 602.0319510915169 378.78706477951556Q590.7732597333058 384.48326729566514 578.4448589823907 384.48326729566514ZM678.7836000180392 375.4174801924975L678.7836000180392 375.4174801924975Q675.681442779197 375.4174801924975 674.8256752650337 373.01063405891324Q673.9699077508704 370.6037879253289 673.9699077508704 368.1167135872917L673.9699077508704 368.1167135872917Q673.9699077508704 359.05092648412415 677.4197205423412 348.674745374894Q680.8962760686298 338.27182153084624 686.4855076455088 328.72466520096174Q692.0479964875705 319.20425160589485 698.5999665178834 313.05342259784607L698.5999665178834 313.05342259784607Q705.5263348356426 306.68865171125645 714.9665202262566 306.68865171125645L714.9665202262566 306.68865171125645Q718.8174740399917 306.68865171125645 722.5881996492736 307.54441922541974Q726.3321825237382 308.42692947440065 729.9959371937499 309.9512653590041L729.9959371937499 309.9512653590041Q733.2585508414976 307.65139016469016 737.1095046552324 305.9131124015459Q740.9604584689674 304.1748346384017 744.9986114264256 304.1748346384017L744.9986114264256 304.1748346384017Q745.9613498798593 304.1748346384017 746.5496900458464 305.3515149703763L746.5496900458464 305.3515149703763L746.5496900458464 305.9131124015459Q746.5496900458464 306.5014525675332 746.0683208191296 306.3944816282628Q745.5869515924127 306.31425342381 745.2125533049663 306.31425342381L745.2125533049663 306.31425342381Q742.1103960661243 306.31425342381 738.4733841309302 311.0209747517082Q734.8096294609185 315.72769607960646 731.1458747909068 323.0552054196298Q727.4821201208953 330.3827147596532 724.5136765561411 338.45902067456944Q721.5184902565696 346.5353265894857 719.6999842889726 353.27449576352177Q717.8547355865579 360.0136649375579 717.8547355865579 363.49022046384636L717.8547355865579 363.49022046384636Q717.8547355865579 364.8273572047265 718.3361048132748 366.5656349678707Q718.8174740399917 368.303912731015 720.5557518031359 368.303912731015L720.5557518031359 368.303912731015Q721.5184902565696 368.303912731015 722.1870586270096 367.92951444356856Q722.8556269974498 367.5283734213045 723.6311663071602 367.15397513385807L723.6311663071602 367.15397513385807Q727.8832611431593 364.6401580610033 732.00164230507 360.3078350205515Q736.1467662017986 355.9755119800997 739.7035499325399 350.8676496299375Q743.287076398099 345.7865300145928 745.5869515924127 341.5344351785938L745.5869515924127 341.5344351785938Q745.774150736136 341.7216343223171 745.774150736136 342.30997448830436L745.774150736136 342.30997448830436Q745.774150736136 343.4599120854613 744.4370139952558 345.6795590753224Q743.073134519558 347.8992060651835 741.3615994912315 350.3862804032206Q739.6233217280873 352.90009747607536 738.1792140479366 354.8255743829428Q736.735106367786 356.7510512898102 736.735106367786 357.1254495772567L736.735106367786 357.1254495772567Q736.5479072240627 358.4893290529545 736.1467662017986 359.3450965671178Q735.7723679143522 360.2276068160987 734.9968286046418 361.5647435569789L734.9968286046418 361.5647435569789Q732.4830115317869 364.0785606298336 728.6320577180521 367.3411742775813Q724.7811039043173 370.6037879253289 720.6627227424063 373.01063405891324Q716.5175988456778 375.4174801924975 712.6666450319427 375.4174801924975L712.6666450319427 375.4174801924975Q706.7030151676173 375.4174801924975 706.7030151676173 369.07945204072547L706.7030151676173 369.07945204072547Q706.7030151676173 365.22849822699055 708.334321991491 360.1206358768283Q709.9656288153648 355.012773526666 712.1852758052258 349.90491117650373Q714.4049227950869 344.8237915611591 716.1164578234137 341.3472360348706L716.1164578234137 341.3472360348706Q716.1164578234137 341.1600368911474 716.1164578234137 340.75889586888337Q716.1164578234137 340.3844975814369 715.9292586796904 340.3844975814369L715.9292586796904 340.3844975814369Q715.7420595359671 340.3844975814369 715.3676612485207 340.75889586888337L715.3676612485207 340.75889586888337Q713.0410433193894 343.86105310772535 708.6284920744846 349.63748382832773Q704.1891980947624 355.41391454893005 698.894136600877 361.2705734739853Q693.5990751069916 367.15397513385807 688.1970426738357 371.29909903058655Q682.8217529754974 375.4174801924975 678.7836000180392 375.4174801924975ZM687.2343042204019 367.15397513385807L687.2343042204019 367.15397513385807Q689.3737230058101 367.15397513385807 692.5293657142873 364.34598797800965Q695.7117511575822 361.5647435569789 699.2685348883234 357.60681880397357Q702.8520613538823 353.67563678578585 705.6333057749131 350.0118821157742Q708.4145501959439 346.3481274457625 709.5912305279184 344.60984968261823L709.5912305279184 344.60984968261823Q711.8911057222323 341.1600368911474 714.8862920218038 335.9452036017147Q717.8547355865579 330.7571130470996 720.074382576419 325.1678814702205Q722.2940295662801 319.5786498933413 722.2940295662801 315.72769607960646L722.2940295662801 315.72769607960646Q722.2940295662801 309.7640662152808 716.3303997019544 309.7640662152808L716.3303997019544 309.7640662152808Q712.853844175666 309.7640662152808 709.002890361931 312.83948071930524Q705.1519365481962 315.9416379581473 702.8520613538823 318.4287122961844L702.8520613538823 318.4287122961844Q700.3382442810276 321.5041268002088 697.1558588377328 327.28055752081116Q693.973473394438 333.05698824141353 691.2991999126776 339.7961574154496Q688.5981836960997 346.5353265894857 686.752934993685 352.71289833235215Q684.934429026088 358.86372734040094 684.934429026088 362.90188029785907L684.934429026088 362.90188029785907Q684.934429026088 364.0785606298336 685.3088273135344 365.602896514437Q685.7099683357984 367.15397513385807 687.2343042204019 367.15397513385807ZM743.073134519558 376.5941605244721L743.073134519558 376.5941605244721Q739.4361225843639 376.5941605244721 734.9968286046418 375.2302810487743Q730.5575346249196 373.89314430789415 728.4448585743288 370.22938963788243L728.4448585743288 370.22938963788243L728.4448585743288 369.854991350436Q728.4448585743288 368.89225289700227 730.8517047079132 366.8598050508644Q733.2585508414976 364.8273572047265 735.9595670580755 362.82165209340627Q738.6605832746535 360.7892042472684 739.4361225843639 359.82646579383464L739.4361225843639 359.82646579383464L740.7732593252441 359.45206750638823L741.1476576126905 360.2276068160987Q739.8105208718104 361.3775444132557 739.8105208718104 362.71468115413586L739.8105208718104 362.71468115413586Q739.8105208718104 365.602896514437 742.0301678616714 367.5283734213045Q744.2498148515325 369.4538503281719 747.2182584162866 370.4165887816057Q750.2134447158581 371.3793272350394 752.5133199101721 371.3793272350394L752.5133199101721 371.3793272350394Q755.21433612675 371.3793272350394 759.3594600234786 369.854991350436Q763.5045839202072 368.303912731015 766.7671975679547 365.602896514437Q770.0298112157024 362.90188029785907 770.0298112157024 359.63926665011144L770.0298112157024 359.63926665011144Q770.0298112157024 354.63837523921956 766.954396711678 350.9746205692079Q763.8789822076536 347.3108658991962 759.8408292501955 344.04825225144856Q755.8026762927374 340.75889586888337 752.7005190538954 337.1218839336893Q749.6251045498708 333.45812926367756 749.6251045498708 328.64443699650894L749.6251045498708 328.64443699650894Q749.6251045498708 323.0552054196298 752.994689136889 318.53568323545477Q756.3642737239071 314.0161610512798 761.6593352177925 310.833775607985Q766.954396711678 307.65139016469016 772.7308274322803 306.02008334081637Q778.5072581528826 304.3887765169425 783.3209504200514 304.3887765169425L783.3209504200514 304.3887765169425Q784.0964897297619 304.3887765169425 786.7975059463398 304.6562038651186Q789.4985221629178 304.9503739481122 791.9053682965022 305.6189423185523Q794.3122144300863 306.31425342381 794.3122144300863 307.46419102096695L794.3122144300863 307.46419102096695Q794.3122144300863 307.8385893084134 794.0982725515456 307.8385893084134L794.0982725515456 307.8385893084134L793.7238742640992 307.8385893084134L792.1727956446781 307.46419102096695Q792.7611358106655 308.8013277618471 792.7611358106655 310.7268046687146L792.7611358106655 310.7268046687146Q792.7611358106655 312.4650824318588 791.985596500955 315.16609864843673Q791.2100571912443 317.8671148650147 790.2473187378106 319.3914507496181L790.2473187378106 319.3914507496181Q790.0601195940875 319.7925917718822 788.3218418309433 321.9052678224728Q786.6103068026165 324.01794387306353 784.8720290394723 325.943420779931Q783.1337512763281 327.86889768679845 782.7593529888817 327.86889768679845L782.7593529888817 327.86889768679845L782.5454111103408 327.494499399352Q782.946552132605 326.5317609459183 785.0592281831956 324.12491481233394Q787.1719042337862 321.7180686787496 787.1719042337862 317.8671148650147L787.1719042337862 317.8671148650147Q787.1719042337862 313.80221917273894 783.5081495637745 311.20817389543146Q779.8711376285804 308.61412861812386 776.0201838148456 308.61412861812386L776.0201838148456 308.61412861812386Q772.3564291448339 308.61412861812386 768.3985043918286 310.9140038124378Q764.4673223736407 313.2406217415693 761.8465343615156 316.904376411581Q759.2524890842082 320.5413883467751 759.2524890842082 324.39234216050994L759.2524890842082 324.39234216050994Q759.2524890842082 327.86889768679845 762.6220736712263 331.61288056126295Q765.9916582582442 335.383606170545 770.3239812986961 339.12758904500953Q774.6563043391478 342.89831465429165 778.025888926166 346.5353265894857Q781.3954735131839 350.1990812594974 781.3954735131839 353.4884376420626L781.3954735131839 353.4884376420626L781.3954735131839 354.0500350732323Q781.3954735131839 358.86372734040094 777.1701214120025 363.0088512371295Q772.9180265760036 367.15397513385807 766.5799984242316 370.22938963788243Q760.2152275376419 373.30480414190686 753.7702284465994 374.93611096578064Q747.3252293555571 376.5941605244721 743.073134519558 376.5941605244721ZM794.686612717533 375.63142207103834L794.686612717533 375.63142207103834Q791.6111982135084 375.63142207103834 790.4612606163515 374.08034345161735Q789.2845802843768 372.52926483219636 789.2845802843768 369.64104947189514L789.2845802843768 369.64104947189514Q789.2845802843768 364.6401580610033 791.6111982135084 357.0452213728039Q793.9110734078223 349.4235419497869 797.3876289341109 340.8658668081537Q800.8374417255817 332.3081916665206 804.2070263125996 324.4993130997804Q807.5766108996178 316.69043453304016 809.716029685026 311.6895431221483L809.716029685026 311.6895431221483Q807.2022126121714 311.87674226587154 804.6883955393165 311.87674226587154Q802.2013212012795 311.87674226587154 799.5003049847015 312.09068414441236L799.5003049847015 312.09068414441236Q799.1259066972551 311.6895431221483 799.1259066972551 311.3151448347018L799.1259066972551 311.3151448347018Q799.1259066972551 310.1652072375449 800.6502425818584 308.61412861812386Q802.2013212012795 307.06304999870287 804.2070263125996 306.02008334081637Q806.2394741587376 304.9503739481122 807.2022126121714 304.9503739481122L807.2022126121714 304.9503739481122L812.6042450453273 304.9503739481122Q814.5297219521948 300.3238808246668 816.5354270635149 295.724130436039Q818.5678749096529 291.0976373125936 820.3061526727971 286.47114418914816L820.3061526727971 286.47114418914816Q821.2688911262309 283.9573271162934 822.4990569278406 282.3260202924196Q823.7559654642679 280.6947134685458 826.0825833933994 279.1436348491248L826.0825833933994 279.1436348491248Q829.3451970411471 277.03095879853413 834.1588893083157 275.6938220576539Q838.9725815754842 274.3299425819562 842.636336245496 274.3299425819562L842.636336245496 274.3299425819562Q843.0107345329424 274.3299425819562 843.4921037596592 274.7310836042202Q843.9734729863761 275.10548189166667 844.1606721300994 275.2926810353899L844.1606721300994 275.2926810353899L844.1606721300994 276.06822034510037Q844.1606721300994 276.65656051108766 843.6793029033826 276.46936136736446Q843.1979336766657 276.25541948882363 842.8235353892193 276.25541948882363L842.8235353892193 276.25541948882363Q840.5236601949053 276.25541948882363 837.4215029560634 280.0261450981057Q834.346088452039 283.7701279725702 831.0834748042913 288.9849612620029Q827.794118421726 294.173051816618 825.3872722881416 298.8797731445162Q822.9804261545574 303.61323720723203 822.0176877011237 305.3515149703763L822.0176877011237 305.3515149703763L829.7195953285935 305.3515149703763Q832.8217525674355 305.3515149703763 835.8971670714599 305.2445440311058Q838.9725815754842 305.1375730918354 842.0479960795086 304.763174804389L842.0479960795086 304.763174804389L842.2351952232319 305.1375730918354Q842.0479960795086 305.1375730918354 842.0479960795086 305.3515149703763Q842.0479960795086 305.5387141140995 841.8607969357855 305.5387141140995L841.8607969357855 305.5387141140995Q841.2724567697982 306.10031154526916 838.9725815754842 307.35722008169654Q836.6727063811703 308.61412861812386 834.346088452039 309.5768670715576Q832.0462132577251 310.5396055249914 831.0834748042913 310.7268046687146L831.0834748042913 310.7268046687146Q828.008060300267 311.1279456909786 825.0128740006952 311.3151448347018Q822.0176877011237 311.5023439784251 818.9422731970993 311.5023439784251L818.9422731970993 311.5023439784251Q817.0167962902318 315.72769607960646 813.9413817862074 322.68080713218336Q810.8659672821831 329.6071754499427 807.7905527781585 337.3893112818653Q804.6883955393165 345.1981898486055 802.6826904279964 352.2315291056353Q800.6502425818584 359.26486836266497 800.6502425818584 363.86461875129277L800.6502425818584 363.86461875129277Q800.6502425818584 365.04129908326735 801.0513836041224 366.5656349678707Q801.425781891569 368.1167135872917 802.9768605109899 368.1167135872917L802.9768605109899 368.1167135872917Q804.3139972518701 368.1167135872917 805.6511339927503 367.15397513385807L805.6511339927503 367.15397513385807Q809.9032288287493 364.6401580610033 814.0483527254779 360.3078350205515Q818.1667338873889 355.9755119800997 821.7502603529475 350.8676496299375Q825.307044083689 345.7865300145928 827.4197201342796 341.5344351785938L827.4197201342796 341.5344351785938Q827.794118421726 341.7216343223171 827.794118421726 342.30997448830436L827.794118421726 342.30997448830436Q827.794118421726 343.4599120854613 826.4569816808458 345.6795590753224Q825.1198449399657 347.8992060651835 823.3815671768215 350.3862804032206Q821.6432894136773 352.90009747607536 820.1991817335266 354.8255743829428Q818.755074053376 356.7510512898102 818.755074053376 357.1254495772567L818.755074053376 357.1254495772567Q818.5678749096529 358.6765281966777 818.086505682936 359.3450965671178Q817.6051364562192 360.0136649375579 817.0167962902318 361.5647435569789L817.0167962902318 361.5647435569789Q814.5297219521948 363.86461875129277 810.6787681384598 367.2342033383108Q806.827814324725 370.6037879253289 802.5757194887259 373.1176049981836Q798.3503673875445 375.63142207103834 794.686612717533 375.63142207103834Z " fill="#ffffff" transform="matrix(1.0365325422124672,0,0,1.0365325422124674,0,-20.789481547251185)"/></g></svg>